<?xml version="1.0" standalone="no"?>
<!DOCTYPE svg PUBLIC "-//W3C//DTD SVG 20010904//EN"
 "http://www.w3.org/TR/2001/REC-SVG-20010904/DTD/svg10.dtd">
<svg version="1.0" xmlns="http://www.w3.org/2000/svg"
 width="644.000000pt" height="644.000000pt" viewBox="0 0 644.000000 644.000000"
 preserveAspectRatio="xMidYMid meet">

<g transform="translate(0.000000,644.000000) scale(0.100000,-0.100000)"
fill="#000000" stroke="none">
<path d="M3124 5930 c-27 -11 -64 -57 -64 -80 0 -15 -26 -19 -216 -35 l-215
-18 43 -46 c24 -25 46 -47 51 -49 4 -2 7 -7 7 -11 0 -5 -115 -57 -255 -116
l-255 -107 -43 21 c-124 60 -262 -14 -275 -149 -4 -40 1 -60 22 -103 l27 -52
-153 -373 c-140 -341 -155 -372 -174 -367 -34 8 -117 -22 -146 -52 -116 -121
-48 -304 119 -322 l57 -6 32 -80 c18 -44 96 -232 173 -419 129 -313 139 -340
126 -360 -41 -58 3 -146 72 -146 45 0 69 14 89 51 27 54 -5 118 -66 132 -21 5
-32 22 -64 99 -20 51 -98 241 -173 421 -134 325 -136 329 -116 348 19 19 20
18 131 -63 102 -76 111 -85 106 -109 -6 -32 15 -87 43 -112 28 -24 86 -32 131
-18 37 12 38 12 242 -106 113 -65 205 -124 204 -131 -1 -7 -2 -36 -2 -66 l-2
-55 -200 -106 -200 -107 16 -29 15 -30 82 45 c203 110 311 166 317 166 4 0 14
-7 21 -17 21 -25 90 -53 132 -53 52 0 104 24 144 67 l34 36 534 -127 c293 -70
549 -132 569 -137 78 -22 55 -36 -324 -199 -351 -151 -360 -156 -354 -180 3
-14 8 -28 12 -32 4 -3 140 52 302 123 162 71 323 141 358 155 l62 27 37 -37
c114 -114 316 -32 317 129 0 62 -11 92 -49 134 l-35 38 65 132 c36 72 87 196
114 274 27 78 69 189 93 247 41 97 47 105 74 108 93 8 146 39 181 105 37 72
11 175 -60 231 -29 23 -50 31 -96 34 l-59 4 -150 357 c-83 196 -156 357 -164
359 -7 1 -21 -3 -31 -11 -17 -12 -17 -15 3 -62 29 -66 42 -101 37 -95 -3 3
-30 42 -60 87 l-56 83 27 6 c55 12 83 27 117 65 41 46 49 72 43 144 -11 128
-146 202 -266 144 -24 -12 -49 -30 -55 -40 -7 -11 -17 -19 -23 -19 -31 0 -554
232 -554 246 0 2 52 43 115 90 64 48 114 88 113 90 -3 3 -413 -32 -471 -41
-33 -5 -38 -2 -47 20 -11 28 -65 65 -95 64 -11 0 -30 -4 -41 -9z m-263 -377
c41 -43 81 -85 87 -94 10 -14 -3 -52 -82 -225 l-94 -209 25 -13 c14 -8 29 -10
34 -5 4 4 45 89 90 188 45 99 85 183 88 187 6 7 184 -174 331 -335 24 -27 46
-45 47 -40 2 5 -7 57 -20 116 -13 59 -21 110 -17 112 19 12 48 -41 149 -283
l111 -263 -37 -44 c-21 -25 -42 -44 -48 -44 -5 0 -165 37 -354 82 l-344 82
-14 40 c-26 77 -88 113 -159 94 -43 -12 -25 -26 -235 174 l-166 158 14 42 c12
34 13 52 4 91 -6 27 -10 50 -9 51 2 1 98 41 213 90 116 48 228 95 250 105 22
10 45 19 50 19 6 1 44 -34 86 -76z m1219 -166 c0 -16 -6 -14 -40 13 -22 17
-40 33 -40 35 0 2 18 -4 40 -13 26 -11 40 -23 40 -35z m237 38 c60 -42 24
-144 -52 -144 -53 0 -91 48 -80 100 8 36 39 59 80 59 17 0 40 -7 52 -15z
m-2176 -44 c17 -18 29 -40 29 -56 0 -34 -50 -85 -84 -85 -41 0 -80 41 -80 85
0 29 7 43 28 61 37 32 71 30 107 -5z m1409 -200 c109 -40 251 -116 338 -181
l71 -53 -70 -103 c-39 -56 -68 -107 -64 -113 3 -6 15 -15 25 -21 16 -9 27 3
86 88 37 53 69 99 71 102 9 9 144 -144 204 -233 65 -94 154 -270 140 -275 -7
-2 -347 80 -433 104 -10 3 -18 13 -18 23 0 40 -34 112 -66 140 -34 31 -88 51
-136 51 -24 0 -30 9 -74 113 -108 255 -162 387 -158 387 2 0 40 -13 84 -29z
m-1157 -167 l175 -166 -5 -53 c-7 -65 13 -103 69 -135 32 -18 38 -27 38 -53 0
-29 12 -238 24 -437 3 -41 8 -136 11 -210 8 -195 10 -200 46 -200 30 0 30 0
24 48 -3 26 -14 224 -26 440 l-21 393 38 34 c22 19 46 32 54 30 26 -7 691
-165 696 -165 2 0 4 -12 4 -26 0 -14 10 -48 22 -75 l21 -51 -90 -91 c-74 -76
-339 -354 -554 -581 -46 -49 -47 -49 -79 -36 -63 26 -136 15 -201 -31 -12 -9
-55 11 -222 107 l-207 119 0 45 c0 25 -7 55 -15 67 -15 21 -7 33 180 284 184
248 194 264 178 281 -9 10 -20 18 -24 18 -4 0 -96 -119 -205 -264 -186 -249
-199 -264 -225 -259 -15 3 -42 -2 -62 -12 -41 -19 -29 -26 -180 88 -71 53 -77
60 -70 85 19 67 -4 142 -57 191 l-28 26 124 300 c68 165 135 328 149 361 l26
61 67 -4 c53 -3 74 0 102 15 19 11 38 20 41 21 4 0 85 -74 182 -165z m328
-194 c13 -7 19 -21 19 -45 0 -51 -53 -73 -92 -38 -50 45 11 116 73 83z m1044
-245 c67 -67 -20 -171 -105 -125 -26 14 -41 64 -29 99 19 53 93 68 134 26z
m851 -141 c4 -13 0 -23 -9 -27 -12 -4 -18 9 -26 59 -7 35 -14 72 -17 81 -3 10
7 -7 21 -36 14 -30 28 -65 31 -77z m-471 -57 l240 -63 13 -40 c46 -135 68
-361 52 -519 -10 -98 -18 -127 -72 -262 l-62 -153 -43 0 c-23 0 -61 -7 -83
-16 l-41 -17 -215 214 c-206 205 -214 215 -210 247 6 39 -7 78 -36 109 l-20
21 38 216 38 217 41 18 c23 10 55 35 71 55 16 20 34 36 39 36 6 -1 118 -29
250 -63z m-472 -48 c12 -9 -61 -422 -76 -431 -7 -4 -17 -8 -23 -8 -19 0 -45
-37 -58 -81 l-13 -42 -178 -74 c-98 -40 -180 -75 -183 -77 -3 -4 14 -43 23
-54 2 -2 87 31 190 73 172 71 188 76 216 65 16 -7 47 -10 67 -7 l39 5 217
-218 c212 -212 217 -219 204 -243 l-13 -25 -435 104 c-239 57 -495 118 -567
135 l-133 32 0 35 c0 19 -7 49 -16 68 -15 31 -15 35 2 58 11 13 167 179 348
369 317 332 331 344 355 334 14 -6 30 -14 34 -18z m1115 -15 c12 -14 22 -34
22 -44 0 -57 -57 -102 -107 -84 -69 24 -80 107 -20 145 39 24 73 18 105 -17z
m-3145 15 c47 -21 60 -80 27 -122 -26 -33 -63 -41 -101 -22 -54 29 -63 83 -20
126 31 31 55 36 94 18z m2986 -226 c0 -5 -4 -17 -9 -28 -8 -18 -9 -17 -9 8 -1
15 4 27 9 27 6 0 10 -3 9 -7z m-1815 -534 c19 -15 26 -30 26 -54 0 -47 -8 -64
-41 -81 -36 -18 -73 -10 -99 23 -28 36 -25 75 6 107 32 32 72 34 108 5z m1496
-349 c10 -5 24 -26 30 -46 11 -32 10 -39 -7 -63 -42 -55 -111 -50 -141 11 -14
30 -2 74 25 96 20 14 67 16 93 2z"/>
<path d="M2868 3274 l-27 -14 39 -73 c213 -396 201 -370 181 -391 -19 -18 -28
-15 -428 151 -358 149 -410 168 -420 155 -32 -39 -22 -44 397 -217 l410 -168
0 -31 c0 -40 32 -91 72 -117 39 -24 112 -22 153 5 37 24 69 99 61 142 -12 63
-85 124 -149 124 -20 0 -36 23 -110 163 -171 321 -148 287 -179 271z"/>
<path d="M3005 2447 c-20 -7 -127 -10 -309 -9 -167 0 -287 -3 -298 -9 -35 -19
-14 -125 23 -114 37 12 137 25 193 25 l59 0 -8 -350 c-5 -270 -4 -354 5 -365
28 -33 149 -3 135 33 -19 51 -25 144 -25 391 0 151 3 277 6 280 3 3 57 4 120
2 136 -4 164 7 164 63 0 66 -9 74 -65 53z"/>
<path d="M4071 2449 c-19 -8 -22 -13 -15 -32 5 -12 9 -193 9 -402 0 -209 4
-386 9 -394 9 -14 90 -11 106 5 5 5 4 29 -1 54 -5 25 -8 119 -7 210 l3 165 48
24 c58 29 123 36 156 19 14 -7 34 -29 45 -48 19 -32 21 -51 21 -225 0 -104 4
-196 8 -202 19 -30 125 -4 110 26 -4 9 -10 102 -13 206 -5 167 -8 195 -27 230
-26 49 -48 70 -96 90 -55 23 -133 19 -195 -10 -30 -14 -56 -25 -59 -25 -3 0
-2 65 2 145 6 110 4 149 -5 160 -14 17 -62 19 -99 4z"/>
<path d="M5945 2443 c-46 -11 -119 -13 -305 -9 -135 3 -255 3 -268 0 -28 -8
-37 -43 -22 -89 9 -28 16 -35 29 -29 35 14 99 23 175 24 l79 0 -7 -355 c-6
-344 -6 -354 13 -365 27 -14 55 -13 95 4 l34 14 -13 50 c-20 76 -28 278 -20
476 l7 177 117 -6 c139 -7 164 1 169 55 2 19 -3 42 -10 51 -11 13 -20 14 -73
2z"/>
<path d="M802 2443 c-55 -4 -63 -6 -57 -21 21 -54 27 -171 23 -459 -5 -260 -3
-316 9 -333 16 -23 53 -26 102 -9 30 11 32 14 26 43 -16 79 -25 146 -25 197
l0 57 88 4 c71 3 100 10 145 32 103 50 157 141 157 260 0 76 -25 132 -76 174
-70 58 -144 69 -392 55z m275 -110 c46 -24 73 -74 73 -136 0 -61 -19 -106 -59
-140 -40 -33 -68 -41 -146 -42 l-60 0 -3 75 c-2 41 -1 116 3 167 6 83 9 92 28
97 41 9 128 -3 164 -21z"/>
<path d="M5111 2425 c-24 -11 -31 -19 -27 -32 23 -59 27 -133 24 -429 -3 -342
-1 -354 45 -354 11 0 37 5 59 12 33 10 38 15 34 32 -23 84 -28 182 -23 458 5
258 4 300 -9 313 -19 19 -59 19 -103 0z"/>
<path d="M1913 2182 c-175 -62 -251 -258 -168 -429 86 -175 346 -208 496 -62
70 68 93 124 93 224 1 65 -4 88 -23 125 -55 106 -132 152 -261 157 -64 3 -98
-1 -137 -15z m231 -99 c83 -58 113 -191 65 -291 -54 -110 -214 -143 -317 -65
-99 74 -98 272 2 347 70 54 180 58 250 9z"/>
<path d="M1346 2168 c5 -13 9 -138 9 -278 0 -140 4 -261 8 -267 14 -22 90 -14
124 11 1 1 -4 24 -12 51 -10 31 -15 93 -15 177 l0 128 48 50 c55 57 81 62 110
23 l19 -27 27 29 c33 35 33 69 1 100 -46 47 -115 27 -181 -51 l-32 -37 2 42
c1 52 -20 71 -77 71 -37 0 -39 -2 -31 -22z"/>
<path d="M3115 2174 c-62 -22 -111 -68 -145 -138 -27 -55 -32 -75 -32 -142 0
-132 39 -208 133 -259 44 -23 69 -30 135 -33 145 -8 227 39 180 103 -13 18
-15 18 -49 2 -77 -37 -176 -30 -241 16 -31 22 -65 88 -66 128 l0 25 121 -4
c207 -8 279 24 279 123 0 81 -39 141 -115 176 -48 22 -142 24 -200 3z m155
-70 c43 -17 70 -55 70 -96 -1 -63 -59 -78 -233 -61 l-69 6 6 30 c10 50 47 98
90 118 51 23 84 24 136 3z"/>
<path d="M3716 2165 c-197 -81 -268 -335 -135 -480 51 -55 125 -85 211 -85
115 0 177 36 162 94 -9 36 -16 38 -55 18 -45 -23 -142 -22 -192 2 -115 56
-118 264 -5 346 51 37 116 48 168 27 36 -14 40 -14 54 2 23 25 20 67 -6 85
-35 25 -131 20 -202 -9z"/>
<path d="M4697 1947 c-10 -7 -21 -31 -24 -52 l-5 -40 118 -2 c141 -3 164 6
164 65 l0 37 -118 3 c-85 2 -122 -1 -135 -11z"/>
</g>
</svg>
